<?xml version="1.0" encoding="UTF-8" standalone="no"?>
<!-- Generator: Adobe Illustrator 19.2.1, SVG Export Plug-In . SVG Version: 6.00 Build 0)  -->

<svg
   version="1.1"
   id="layer"
   x="0px"
   y="0px"
   viewBox="0 0 1554.634 922.95001"
   xml:space="preserve"
   sodipodi:docname="condumex-logo-vector.svg"
   width="1554.634"
   height="922.95001"
   inkscape:version="1.1 (c68e22c387, 2021-05-23)"
   xmlns:inkscape="http://www.inkscape.org/namespaces/inkscape"
   xmlns:sodipodi="http://sodipodi.sourceforge.net/DTD/sodipodi-0.dtd"
   xmlns="http://www.w3.org/2000/svg"
   xmlns:svg="http://www.w3.org/2000/svg"><defs
   id="defs21" /><sodipodi:namedview
   id="namedview19"
   pagecolor="#ffffff"
   bordercolor="#666666"
   borderopacity="1.0"
   inkscape:pageshadow="2"
   inkscape:pageopacity="0.0"
   inkscape:pagecheckerboard="0"
   showgrid="false"
   inkscape:zoom="0.079754601"
   inkscape:cx="-2902.6538"
   inkscape:cy="883.96154"
   inkscape:window-width="1920"
   inkscape:window-height="1017"
   inkscape:window-x="1912"
   inkscape:window-y="-8"
   inkscape:window-maximized="1"
   inkscape:current-layer="layer" />
<style
   type="text/css"
   id="style2">
	.st0{fill:#FFFFFF;}
	.st1{fill:none;stroke:#000000;stroke-width:1.5067;}
	.st2{fill:none;stroke:#000000;stroke-width:0.7506;}
	.st3{fill:#F58220;}
	.st4{fill:none;stroke:#F58220;stroke-width:0.7506;}
</style>
<path
   class="st0"
   d="m 723.27952,46.589691 c 0,0 18.40095,-46.33096163 50.9312,-44.0308413 39.4306,2.95729 46.3309,39.4306013 46.3309,39.4306013 L 1052.1964,652.83516 c 0,0 16.1009,48.63108 -4.6002,67.03202 -21.0297,18.40095 -65.06048,11.5006 -65.06048,11.5006 l -213.25383,-76.2325 -204.05336,76.2325 c 0,0 -39.4306,20.70106 -67.36061,-6.90036 -34.17318,-34.17319 -18.40094,-57.83155 -18.40094,-57.83155 z"
   id="path4"
   style="stroke-width:3.28588" />
<path
   class="st1"
   d="m 723.27952,46.589691 c 0,0 18.40095,-46.33096163 50.9312,-44.0308413 39.4306,2.95729 46.3309,39.4306013 46.3309,39.4306013 L 1052.1964,652.83516 c 0,0 16.1009,48.63108 -4.6002,67.03202 -21.0297,18.40095 -65.06048,11.5006 -65.06048,11.5006 l -213.25383,-76.2325 -204.05336,76.2325 c 0,0 -39.4306,20.70106 -67.36061,-6.90036 -34.17318,-34.17319 -18.40094,-57.83155 -18.40094,-57.83155 z"
   id="path6" />
<path
   d="m 823.17042,379.44967 76.561,30.23013 L 771.91059,57.104511 616.48831,458.31087 c 0,0 -16.10083,37.13048 -9.20047,50.93119 8.87188,17.74377 27.93001,27.93001 27.93001,27.93001 L 996.99362,671.5647 971.36372,608.80433 679.24868,490.51253 774.21072,251.62881 Z"
   id="path8"
   style="stroke-width:3.28588" />
<path
   class="st2"
   d="m 823.17042,379.44967 76.561,30.23013 L 771.91059,57.104511 616.48831,458.31087 c 0,0 -16.10083,37.13048 -9.20047,50.93119 8.87188,17.74377 27.93001,27.93001 27.93001,27.93001 L 996.99362,671.5647 971.36372,608.80433 679.24868,490.51253 774.21072,251.62881 Z"
   id="path10" />
<path
   class="st3"
   d="m 563.257,610.77586 -18.40095,65.38908 183.35229,-69.98932 -69.66072,-30.23013 z m 239.21232,-100.21944 106.7912,-53.5599 46.331,37.45907 -81.1614,48.63107 z"
   id="path12"
   style="stroke-width:3.28588" />
<path
   class="st4"
   d="m 563.257,610.77586 -18.40095,65.38908 183.35229,-69.98932 -69.66072,-30.23013 z m 239.21232,-100.21944 106.7912,-53.5599 46.331,37.45907 -81.1614,48.63107 z"
   id="path14" />
<path
   d="m 1373.8844,813.18627 62.7604,56.18857 -62.7604,53.5599 h 51.2598 l 39.7592,-32.2016 36.1447,32.2016 h 53.2313 l -62.7604,-54.217 63.089,-55.86006 h -50.274 l -39.102,36.80186 -39.7592,-36.80186 h -51.5884 z M 965.77772,922.27764 h 33.84461 l -3.94311,-76.5611 52.24558,77.2182 h 33.8446 l 48.3025,-77.2182 v 76.5611 h 32.8588 V 812.5291 h -52.2456 l -47.6453,76.88964 -45.6737,-76.56106 H 965.77772 Z M 1213.8619,812.5291 h 126.5065 v 23.98694 h -91.019 v 18.401 h 86.4188 v 23.9869 h -86.4188 v 18.4009 h 92.9905 v 24.3156 h -128.478 z m -431.43648,0.98576 h 33.1874 v 62.43178 c 0,13.8007 4.9288,19.0581 18.401,19.0581 h 32.8588 c 13.4721,0 18.4009,-5.2574 18.4009,-19.0581 v -62.43178 h 33.1875 v 69.66068 c 0,26.9443 -13.8007,39.7592 -44.3595,39.7592 h -47.6453 c -30.5587,0 -44.3594,-12.8149 -44.3594,-39.7592 v -69.66068 z m -393.64883,0.98577 h 51.25978 l 62.43179,78.53261 h 0.32859 v -78.53261 h 33.18742 v 108.10551 h -51.25978 l -62.43179,-78.5326 h -0.32858 v 78.5326 h -33.18743 z m -166.92287,60.46021 c 0,15.7723 3.28588,21.6869 19.05812,21.6869 h 42.3879 c 15.77224,0 19.05812,-5.9146 19.05812,-21.6869 v -11.5006 c 0,-13.4721 -3.28588,-21.68678 -20.70106,-21.68678 h -38.77343 c -17.41518,0 -20.70106,8.21468 -20.70106,21.68678 v 11.5006 z m -34.17319,-22.0154 c 0,-31.54446 17.74377,-39.10199 47.64531,-39.10199 h 53.23131 c 29.90154,0 47.64531,7.55753 47.64531,39.10199 v 32.2017 c 0,31.5445 -17.74377,39.102 -47.64531,39.102 h -53.23131 c -29.90154,0 -47.64531,-7.5575 -47.64531,-39.102 z M 0.05659499,851.63114 c 0,-31.54451 17.74377001,-39.10204 47.64531001,-39.10204 h 39.10201 c 47.316725,0 53.231315,10.18623 52.902725,40.74494 h -33.18743 v -2.9573 c 0,-7.88611 -5.586,-9.85764 -15.443645,-9.85764 h -36.14471 c -17.41519,0 -20.70107,8.21474 -20.70107,21.68684 v 11.5006 c 0,15.7722 3.28588,21.6868 19.05812,21.6868 h 35.15896 c 14.786465,0 19.386705,-1.6429 19.386705,-14.7865 h 33.18742 v 10.1863 c 0,18.0723 -6.57177,32.5302 -39.75919,32.5302 H 47.701905 c -29.90154,0 -47.64531001,-7.5575 -47.64531001,-39.102 z M 618.78843,896.64774 h 51.91696 c 27.60142,-2.9573 35.48754,-16.1009 34.50177,-30.8873 -0.65718,-12.1578 -9.85765,-23.65839 -34.50177,-27.27287 H 618.78843 Z M 586.25818,812.5291 h 95.61921 c 13.14353,1.97153 50.93119,13.80071 51.25978,53.88844 0.65718,38.4449 -31.87307,56.1886 -41.40213,56.1886 H 585.9296 V 812.5291 Z m -792.55506,180.06644 h 71.30367 v 18.40086 h -44.68801 v 13.8007 h 41.40213 v 17.4152 h -41.40213 v 17.0866 h 46.00236 v 19.3867 h -72.61802 z m 85.43297,0 h 29.244365 l 15.44365,26.61556 14.78648,-26.61556 h 28.91577 l -26.61566,41.73066 29.24437,44.3594 h -29.90154 l -17.0866,-27.6014 -17.08659,27.6014 h -29.572955 l 29.572955,-44.688 z m 157.722405,50.93116 23.32977,6.9003 c -1.64294,6.5718 -3.94306,12.1578 -7.55753,16.4294 -3.28589,4.2717 -7.55753,7.5576 -12.48636,9.8577 -4.92882,2.3001 -11.50059,3.2859 -19.05812,3.2859 -9.20048,0 -17.0866,-1.3144 -23.00119,-3.9431 -5.91459,-2.6287 -11.172,-7.5575 -15.44365,-14.4579 -4.27165,-6.9003 -6.57176,-15.4436 -6.57176,-26.2871 0,-14.1293 3.94306,-25.3013 11.50059,-32.8588 7.55753,-7.55746 18.40094,-11.50056 32.20165,-11.50056 10.84342,0 19.38672,2.3001 25.62989,6.5718 6.24318,4.27156 10.84342,11.17196 13.80071,20.04386 l -23.32977,5.2574 c -0.98576,-2.6287 -1.64294,-4.6002 -2.6287,-5.586 -1.64295,-1.9715 -3.28589,-3.6145 -5.58601,-4.6002 -2.30011,-0.9858 -4.60023,-1.643 -7.22894,-1.643 -5.91459,0 -10.5148303,2.3001 -13.80071,7.229 -2.30012,3.6144 -3.61447,9.2004 -3.61447,16.758 0,9.529 1.31435,16.1008 4.27165,19.7153 2.95729,3.6144 6.90035,5.2574 12.15777,5.2574 4.92882,0 8.87188,-1.3144 11.50059,-4.2717 2.6287,-2.6287 4.60023,-6.9003 5.91459,-12.1577 m 40.74495,-50.93116 h 71.303665 v 18.40086 H 104.2191 v 13.8007 h 41.40213 v 17.4152 H 104.2191 v 17.0866 h 46.00236 v 19.3867 H 77.603445 Z m 91.676145,0 h 26.61565 v 64.73186 h 41.40213 v 21.3582 h -68.01778 z m 85.10438,0 h 71.30366 v 18.40086 h -44.68801 v 13.8007 h 41.40213 v 17.4152 h -41.40213 v 17.0866 h 46.00237 v 19.3867 h -72.61802 z m 91.67614,0 h 24.97271 l 32.53025,47.64526 v -47.64526 h 24.97271 v 86.09006 h -24.97271 l -32.20166,-47.3167 v 47.3167 H 346.3887 v -86.09006 z m 161.99405,50.93116 23.32977,6.9003 c -1.64294,6.5718 -3.94306,12.1578 -7.55753,16.4294 -3.28588,4.2717 -7.55753,7.5576 -12.48636,9.8577 -4.92882,2.3001 -11.50059,3.2859 -19.05812,3.2859 -9.20047,0 -17.08659,-1.3144 -23.00118,-3.9431 -5.91459,-2.6287 -11.17201,-7.5575 -15.44366,-14.4579 -4.27164,-6.9003 -6.57176,-15.4436 -6.57176,-26.2871 0,-14.1293 3.94306,-25.3013 11.50059,-32.8588 7.55753,-7.55746 18.40095,-11.50056 32.20166,-11.50056 10.84341,0 19.38671,2.3001 25.62989,6.5718 6.24318,4.27156 10.84341,11.17196 13.80071,20.04386 l -23.32977,5.2574 c -0.98577,-2.6287 -1.64295,-4.6002 -2.62871,-5.586 -1.64294,-1.9715 -3.28588,-3.6145 -5.586,-4.6002 -2.30012,-0.9858 -4.60024,-1.643 -7.22895,-1.643 -5.91459,0 -10.51482,2.3001 -13.80071,7.229 -2.30011,3.6144 -3.61447,9.2004 -3.61447,16.758 0,9.529 1.31436,16.1008 4.27165,19.7153 2.9573,3.6144 6.90036,5.2574 12.15777,5.2574 4.92882,0 8.87188,-1.3144 11.50059,-4.2717 2.9573,-2.6287 4.92883,-6.9003 5.91459,-12.1577 m 42.05931,-50.93116 h 26.61565 v 86.09006 h -26.61565 z m 97.91932,53.23126 -9.52906,-30.8873 -9.52906,30.8873 z m 5.586,18.7295 h -30.23012 l -4.27165,14.1293 h -27.27283 l 32.20165,-86.09006 h 29.24436 l 32.20166,86.09006 h -27.93001 z m 84.4472,-71.96076 h 80.83273 v 21.35816 h -27.2728 v 64.7319 h -26.61568 v -64.7319 h -27.27283 v -21.35816 z m 97.59073,0 h 71.3037 v 18.40086 h -44.688 v 13.8007 h 41.4021 v 17.4152 h -41.4021 v 17.0866 h 46.0023 v 19.3867 h -72.618 z m 148.8505,50.93116 23.32978,6.9003 c -1.6429,6.5718 -3.9431,12.1578 -7.5575,16.4294 -3.28588,4.2717 -7.55758,7.5576 -12.48638,9.8577 -4.9288,2.3001 -11.5006,3.2859 -19.0581,3.2859 -9.2005,0 -17.0866,-1.3144 -23.0012,-3.9431 -5.9146,-2.6287 -11.172,-7.5575 -15.4436,-14.4579 -4.2717,-6.9003 -6.5718,-15.4436 -6.5718,-26.2871 0,-14.1293 3.943,-25.3013 11.5006,-32.8588 7.5575,-7.55746 18.4009,-11.50056 32.2016,-11.50056 10.8434,0 19.3867,2.3001 25.6299,6.5718 6.24321,4.27156 10.84338,11.17196 13.80068,20.04386 l -23.32968,5.2574 c -0.9858,-2.6287 -1.643,-4.6002 -2.6287,-5.586 -1.643,-1.9715 -3.2859,-3.6145 -5.586,-4.6002 -2.3002,-0.9858 -4.6003,-1.643 -7.229,-1.643 -5.9146,0 -10.5148,2.3001 -13.8007,7.229 -2.3001,3.6144 -3.6145,9.2004 -3.6145,16.758 0,9.529 1.3144,16.1008 4.2717,19.7153 2.9573,3.6144 6.9003,5.2574 12.1577,5.2574 4.9289,0 8.8719,-1.3144 11.5006,-4.2717 2.9573,-2.6287 4.6003,-6.9003 5.9146,-12.1577 m 41.07358,-50.93116 h 24.9727 l 32.5302,47.64526 v -47.64526 h 24.9727 v 86.09006 h -24.9727 l -32.2016,-47.3167 v 47.3167 h -24.9727 v -86.09006 z m 128.1494,43.37356 c 0,8.5433 1.643,14.7865 4.9288,18.7296 3.2859,3.943 7.5576,5.586 13.1436,5.586 5.586,0 10.1862,-1.9716 13.1435,-5.586 3.2859,-3.6145 4.6002,-10.5149 4.6002,-20.0439 0,-8.2147 -1.6429,-14.1293 -4.9288,-17.7438 -3.2859,-3.6145 -7.5575,-5.586 -13.1435,-5.586 -5.2574,0 -9.5291,1.9715 -12.815,5.586 -3.2858,3.9431 -4.9288,10.1862 -4.9288,19.0581 m -26.6156,-0.3286 c 0,-14.1293 3.943,-24.9727 11.8291,-32.8588 7.8862,-7.88606 18.7296,-11.82916 32.5303,-11.82916 14.4579,0 25.3013,3.9431 33.1874,11.50056 7.8861,7.5575 11.5006,18.401 11.5006,32.2017 0,10.1862 -1.6429,18.4009 -4.9288,24.6441 -3.2859,6.5718 -8.2147,11.5006 -14.7865,15.1151 -6.2432,3.6144 -14.4579,5.2574 -23.9869,5.2574 -9.8577,0 -17.7438,-1.643 -23.987,-4.6003 -6.2432,-2.9573 -11.5006,-7.8861 -15.4436,-14.7864 -3.9431,-6.2432 -5.9146,-14.4579 -5.9146,-24.6442 m 108.4341,-43.04496 h 26.6157 v 64.73186 h 41.4021 v 21.3582 h -68.0178 z m 125.5208,-22.6726 h 20.701 l -19.0581,17.4151 h -11.5006 z m -17.4152,66.04616 c 0,8.5433 1.6429,14.7865 4.9288,18.7296 3.2859,3.943 7.5575,5.586 13.1435,5.586 5.586,0 10.1863,-1.9716 13.1436,-5.586 3.2859,-3.6145 4.6002,-10.5149 4.6002,-20.0439 0,-8.2147 -1.6429,-14.1293 -4.9288,-17.7438 -3.2859,-3.6145 -7.5576,-5.586 -13.1436,-5.586 -5.2574,0 -9.529,1.9715 -12.8149,5.586 -3.2859,3.9431 -4.9288,10.1862 -4.9288,19.0581 m -26.6157,-0.3286 c 0,-14.1293 3.9431,-24.9727 11.8292,-32.8588 7.8861,-7.88606 18.7295,-11.82916 32.8588,-11.82916 14.4579,0 25.3013,3.9431 33.1875,11.50056 7.8861,7.5575 11.5005,18.401 11.5005,32.2017 0,10.1862 -1.6429,18.4009 -4.9288,24.6441 -3.2859,6.5718 -8.2147,11.5006 -14.7865,15.1151 -6.2431,3.6144 -14.4578,5.2574 -23.9869,5.2574 -9.5291,0 -17.7438,-1.643 -23.9869,-4.6003 -6.2432,-2.9573 -11.5006,-7.8861 -15.4437,-14.7864 -4.2716,-6.2432 -6.2432,-14.4579 -6.2432,-24.6442 m 151.4792,11.8292 v -17.7438 h 41.0736 v 36.4733 c -7.8861,5.2575 -14.7865,8.8719 -20.7011,10.8435 -5.9146,1.9715 -13.1435,2.9573 -21.3582,2.9573 -10.1863,0 -18.401,-1.643 -24.9727,-5.2575 -6.5718,-3.6144 -11.5006,-8.5433 -15.1151,-15.4436 -3.6145,-6.9004 -5.2574,-14.7865 -5.2574,-23.6584 0,-9.529 1.9715,-17.4151 5.9146,-24.6441 3.943,-6.9003 9.529,-12.15778 17.0866,-15.77216 5.9146,-2.6287 13.8007,-4.2717 23.6583,-4.2717 9.5291,0 16.758,0.9858 21.3583,2.6287 4.6002,1.643 8.5433,4.2717 11.8292,7.88606 2.9572,3.6145 5.586,8.2148 6.9003,13.8008 l -25.6299,4.6002 c -0.9857,-3.2859 -2.9573,-5.586 -5.2574,-7.5575 -2.6287,-1.643 -5.586,-2.6287 -9.5291,-2.6287 -5.9145,0 -10.5148,1.9715 -13.8007,5.9145 -3.2859,3.9431 -5.2574,10.5149 -5.2574,19.0582 0,9.2004 1.643,16.1008 5.2574,20.0439 3.6145,3.943 8.2147,5.9145 14.4579,5.9145 2.9573,0 5.9146,-0.3285 8.5433,-1.3143 2.6287,-0.9858 5.9146,-2.3001 9.2005,-4.2717 v -8.2147 h -18.401 z m 62.7604,-54.87416 h 26.6157 v 86.09006 h -26.6157 z m 107.777,50.93116 23.3298,6.9003 c -1.643,6.5718 -3.9431,12.1578 -7.5576,16.4294 -3.2859,4.2717 -7.5575,7.5576 -12.4863,9.8577 -4.9289,2.3001 -11.5006,3.2859 -19.0582,3.2859 -9.2004,0 -17.0865,-1.3144 -23.0011,-3.9431 -5.9146,-2.6287 -11.172,-7.5575 -15.4437,-14.4579 -4.2716,-6.9003 -6.5718,-15.4436 -6.5718,-26.2871 0,-14.1293 3.9431,-25.3013 11.5006,-32.8588 7.5576,-7.55746 18.401,-11.50056 32.2017,-11.50056 10.8434,0 19.3867,2.3001 25.6299,6.5718 6.2432,4.27156 10.8434,11.17196 13.8007,20.04386 l -23.3298,5.2574 c -0.9857,-2.6287 -1.6429,-4.6002 -2.6287,-5.586 -1.6429,-1.9715 -3.2859,-3.6145 -5.586,-4.6002 -2.3001,-0.9858 -4.6002,-1.643 -7.2289,-1.643 -5.9146,0 -10.5149,2.3001 -13.8007,7.229 -2.3002,3.6144 -3.6145,9.2004 -3.6145,16.758 0,9.529 1.3143,16.1008 4.2716,19.7153 2.9573,3.6144 6.9004,5.2574 12.1578,5.2574 4.9288,0 8.8719,-1.3144 11.5006,-4.2717 2.9573,-2.6287 4.9288,-6.9003 5.9146,-12.1577 m 88.3903,2.3001 -9.5291,-30.8873 -9.5291,30.8873 z m 5.586,18.7295 h -30.2302 l -4.2716,14.1293 h -27.2729 l 32.2017,-86.09006 h 29.2444 l 32.2016,86.09006 h -27.93 z"
   id="path16"
   style="stroke-width:3.28588" />
</svg>
