<svg xmlns="http://www.w3.org/2000/svg" viewBox="0 0 100 100" width="100" height="100">
  <!-- Fondo circular -->
  <circle cx="50" cy="50" r="45" fill="#2563eb" stroke="#1e40af" stroke-width="2"/>
  
  <!-- Letra C estilizada -->
  <path d="M35 30 Q25 30 25 40 L25 60 Q25 70 35 70 L45 70 Q50 70 50 65 Q50 60 45 60 L40 60 L40 55 L45 55 Q48 55 48 52.5 Q48 50 45 50 L35 50 Q32 50 32 47.5 Q32 45 35 45 L45 45 Q50 45 50 40 Q50 35 45 35 L35 35 Q30 35 30 32.5 Q30 30 35 30 Z" fill="white"/>
  
  <!-- Letra S estilizada -->
  <path d="M55 35 Q50 35 50 40 Q50 45 55 45 L65 45 Q68 45 68 47.5 Q68 50 65 50 L55 50 Q52 50 52 52.5 Q52 55 55 55 L60 55 L60 60 L55 60 Q50 60 50 65 Q50 70 55 70 L65 70 Q75 70 75 60 L75 40 Q75 30 65 30 L55 30 Q52 30 52 32.5 Q52 35 55 35 Z" fill="white"/>
  
  <!-- Punto decorativo -->
  <circle cx="50" cy="80" r="3" fill="#fbbf24"/>
</svg>